<svg width="133" height="63" viewBox="0 0 133 63" fill="none" xmlns="http://www.w3.org/2000/svg">
<circle cx="31.5" cy="31.5" r="29.5" stroke="#FF4F00" stroke-width="4"/>
<path d="M51.4406 17.8773H63.2563V37.6628C63.2563 40.8108 62.537 43.1255 61.0983 44.6069C59.5172 46.2023 56.9318 47 53.3422 47H51.4406V17.8773ZM19.7325 17.8773H31.5483V47H29.6466C24.3904 47 21.2567 45.2194 20.2453 41.6583C19.9034 40.5045 19.7325 39.1727 19.7325 37.6628V17.8773ZM35.5652 17.8987H47.445V47.0214H35.5652V17.8987ZM83.8751 17.92H97.0583V32.5562L83.8751 17.92ZM69.9227 26.5094H69.7945C69.7945 23.5751 70.5922 21.4099 72.1876 20.0139C73.783 18.618 76.2401 17.92 79.5591 17.92L97.0583 39.1584C97.0583 41.9788 96.2963 43.9944 94.7721 45.2052C93.2907 46.3875 90.8691 46.9786 87.5075 46.9786L69.9227 26.5094ZM69.8586 32.2784L82.5504 47H69.8586V32.2784ZM117.998 17.92H129.792V32.8767H128.275C124.6 32.8767 121.965 32.2428 120.369 30.975C118.788 29.7073 117.998 27.5492 117.998 24.5009V17.92ZM113.724 47C111.417 47 109.366 46.1453 107.571 44.436C105.99 42.9261 104.75 40.9176 103.853 38.4106C103.027 36.103 102.614 33.8168 102.614 31.5519C102.614 28.1475 103.454 25.1206 105.135 22.4711C106.331 20.5908 107.905 19.2661 109.857 18.4969C110.854 18.1123 111.965 17.92 113.19 17.92H114.835V47H113.724ZM117.998 41.4233H128.681V42.0216C128.681 43.3463 128.204 44.4645 127.249 45.3761C126.081 46.4587 124.422 47 122.271 47H117.998V41.4233Z" fill="white"/>
<path d="M61.845 58.6902L60.2337 54.4385H61.1195L62.3764 57.9816H62.1571L63.4478 54.4385H64.1057L65.388 57.9816H65.1771L66.434 54.4385H67.286L65.6664 58.6902H64.8903L63.5574 55.0797H63.9539L62.6379 58.6902H61.845ZM69.6163 58.7661C69.2395 58.7661 68.9105 58.6789 68.6293 58.5046C68.3481 58.3303 68.1288 58.0772 67.9713 57.7454C67.8195 57.4136 67.7436 57.0199 67.7436 56.5644C67.7436 56.1032 67.8195 55.7095 67.9713 55.3834C68.1288 55.0572 68.3481 54.8069 68.6293 54.6326C68.9105 54.4526 69.2395 54.3626 69.6163 54.3626C69.9875 54.3626 70.3108 54.4554 70.5864 54.641C70.862 54.8266 71.0448 55.0797 71.1347 55.4002H71.0419L71.1263 54.4385H71.953C71.9361 54.6129 71.9193 54.7872 71.9024 54.9616C71.8911 55.1303 71.8855 55.2962 71.8855 55.4593V58.6902H71.0335V57.7454H71.1263C71.0363 58.0603 70.8507 58.3106 70.5695 58.4962C70.294 58.6761 69.9762 58.7661 69.6163 58.7661ZM69.8272 58.0997C70.1927 58.0997 70.4852 57.9703 70.7045 57.7116C70.9295 57.4529 71.0419 57.0705 71.0419 56.5644C71.0419 56.0582 70.9295 55.6786 70.7045 55.4255C70.4852 55.1668 70.1927 55.0375 69.8272 55.0375C69.456 55.0375 69.158 55.1668 68.933 55.4255C68.7137 55.6786 68.604 56.0582 68.604 56.5644C68.604 57.0705 68.7137 57.4529 68.933 57.7116C69.1523 57.9703 69.4504 58.0997 69.8272 58.0997ZM73.1287 58.6902V52.4814H73.9808V58.6902H73.1287ZM75.2295 58.6902V52.4814H76.0815V58.6902H75.2295ZM81.0386 58.7661C80.6843 58.7661 80.3581 58.7211 80.06 58.6311C79.7619 58.5412 79.5145 58.4146 79.3177 58.2515L79.5792 57.6695C79.7872 57.8269 80.0178 57.945 80.2709 58.0238C80.524 58.1025 80.7827 58.1419 81.047 58.1419C81.3563 58.1419 81.5897 58.0884 81.7472 57.9816C81.9046 57.8691 81.9834 57.7173 81.9834 57.526C81.9834 57.3798 81.9328 57.2617 81.8315 57.1717C81.7359 57.0818 81.5756 57.0143 81.3507 56.9693L80.5408 56.809C80.1809 56.7303 79.9082 56.5953 79.7226 56.4041C79.537 56.2129 79.4442 55.9682 79.4442 55.6702C79.4442 55.4171 79.5117 55.1921 79.6467 54.9953C79.7872 54.7985 79.9841 54.6438 80.2372 54.5313C80.4959 54.4189 80.7967 54.3626 81.1398 54.3626C81.4547 54.3626 81.7472 54.4076 82.0171 54.4976C82.2871 54.5876 82.512 54.7169 82.692 54.8856L82.422 55.4508C82.2477 55.3046 82.0509 55.1921 81.8315 55.1134C81.6122 55.0291 81.39 54.9869 81.1651 54.9869C80.8502 54.9869 80.6168 55.0459 80.4649 55.164C80.3131 55.2821 80.2372 55.4368 80.2372 55.628C80.2372 55.7742 80.2821 55.8951 80.3721 55.9907C80.4677 56.0807 80.6168 56.151 80.8192 56.2016L81.6291 56.3619C82.0115 56.4406 82.2983 56.57 82.4895 56.75C82.6807 56.9299 82.7763 57.1717 82.7763 57.4754C82.7763 57.7398 82.7032 57.9703 82.557 58.1672C82.4108 58.364 82.2083 58.513 81.9496 58.6143C81.6909 58.7155 81.3872 58.7661 81.0386 58.7661ZM85.3928 58.7661C84.9317 58.7661 84.583 58.6424 84.3468 58.3949C84.1106 58.1419 83.9925 57.7651 83.9925 57.2645V55.0965H83.1658V54.4385H83.9925V53.3166L84.8445 53.0888V54.4385H86.0255V55.0965H84.8445V57.1886C84.8445 57.5036 84.9007 57.7285 85.0132 57.8635C85.1257 57.9985 85.2888 58.0659 85.5025 58.0659C85.6093 58.0659 85.7021 58.0575 85.7809 58.0406C85.8652 58.0181 85.9411 57.9928 86.0086 57.9647V58.6564C85.9243 58.6902 85.8258 58.7155 85.7134 58.7324C85.6009 58.7549 85.494 58.7661 85.3928 58.7661ZM86.7871 58.6902V55.493C86.7871 55.3187 86.7815 55.1443 86.7702 54.97C86.7646 54.79 86.7533 54.6129 86.7365 54.4385H87.5632L87.656 55.5352H87.521C87.5772 55.2709 87.6728 55.0515 87.8078 54.8772C87.9428 54.7029 88.1059 54.5735 88.2971 54.4892C88.4939 54.4048 88.6992 54.3626 88.9129 54.3626C89.0029 54.3626 89.0788 54.3682 89.1407 54.3795C89.2025 54.3851 89.2644 54.3964 89.3263 54.4132L89.3178 55.1725C89.2222 55.1331 89.1379 55.1106 89.0648 55.105C88.9973 55.0937 88.9129 55.0881 88.8117 55.0881C88.5642 55.0881 88.3533 55.1443 88.179 55.2568C88.0047 55.3637 87.8725 55.5099 87.7825 55.6955C87.6925 55.8811 87.6475 56.0807 87.6475 56.2944V58.6902H86.7871ZM91.8917 58.7661C91.2056 58.7661 90.6657 58.5721 90.2721 58.184C89.8784 57.796 89.6816 57.2589 89.6816 56.5728C89.6816 56.1285 89.7659 55.7405 89.9346 55.4087C90.109 55.0769 90.348 54.821 90.6517 54.641C90.961 54.4554 91.3181 54.3626 91.723 54.3626C92.1223 54.3626 92.4569 54.447 92.7269 54.6157C92.9968 54.7844 93.2021 55.0234 93.3427 55.3327C93.4833 55.6364 93.5536 55.9964 93.5536 56.4125V56.6825H90.348V56.1932H92.9715L92.8281 56.3029C92.8281 55.8811 92.7325 55.5549 92.5413 55.3243C92.3557 55.0881 92.0858 54.97 91.7314 54.97C91.3378 54.97 91.0341 55.1078 90.8204 55.3834C90.6067 55.6533 90.4998 56.0273 90.4998 56.5053V56.5897C90.4998 57.0902 90.6207 57.467 90.8626 57.7201C91.11 57.9731 91.4587 58.0997 91.9086 58.0997C92.1561 58.0997 92.3866 58.0659 92.6003 57.9985C92.8197 57.9253 93.0277 57.8072 93.2246 57.6441L93.503 58.2262C93.3061 58.4006 93.0671 58.5355 92.7859 58.6311C92.5047 58.7211 92.2067 58.7661 91.8917 58.7661ZM96.4968 58.7661C95.8107 58.7661 95.2708 58.5721 94.8771 58.184C94.4835 57.796 94.2866 57.2589 94.2866 56.5728C94.2866 56.1285 94.371 55.7405 94.5397 55.4087C94.7141 55.0769 94.9531 54.821 95.2568 54.641C95.5661 54.4554 95.9232 54.3626 96.3281 54.3626C96.7274 54.3626 97.062 54.447 97.332 54.6157C97.6019 54.7844 97.8072 55.0234 97.9478 55.3327C98.0884 55.6364 98.1587 55.9964 98.1587 56.4125V56.6825H94.9531V56.1932H97.5766L97.4332 56.3029C97.4332 55.8811 97.3376 55.5549 97.1464 55.3243C96.9608 55.0881 96.6908 54.97 96.3365 54.97C95.9429 54.97 95.6392 55.1078 95.4255 55.3834C95.2118 55.6533 95.1049 56.0273 95.1049 56.5053V56.5897C95.1049 57.0902 95.2258 57.467 95.4676 57.7201C95.7151 57.9731 96.0638 58.0997 96.5137 58.0997C96.7611 58.0997 96.9917 58.0659 97.2054 57.9985C97.4248 57.9253 97.6328 57.8072 97.8297 57.6441L98.1081 58.2262C97.9112 58.4006 97.6722 58.5355 97.391 58.6311C97.1098 58.7211 96.8118 58.7661 96.4968 58.7661ZM100.782 58.7661C100.32 58.7661 99.9717 58.6424 99.7355 58.3949C99.4993 58.1419 99.3812 57.7651 99.3812 57.2645V55.0965H98.5545V54.4385H99.3812V53.3166L100.233 53.0888V54.4385H101.414V55.0965H100.233V57.1886C100.233 57.5036 100.289 57.7285 100.402 57.8635C100.514 57.9985 100.677 58.0659 100.891 58.0659C100.998 58.0659 101.091 58.0575 101.17 58.0406C101.254 58.0181 101.33 57.9928 101.397 57.9647V58.6564C101.313 58.6902 101.215 58.7155 101.102 58.7324C100.99 58.7549 100.883 58.7661 100.782 58.7661ZM106.306 58.7661C105.879 58.7661 105.505 58.6789 105.184 58.5046C104.869 58.3246 104.624 58.0687 104.45 57.7369C104.281 57.3995 104.197 57.0002 104.197 56.5391C104.197 56.0835 104.284 55.6927 104.459 55.3665C104.633 55.0403 104.878 54.7928 105.192 54.6241C105.507 54.4498 105.879 54.3626 106.306 54.3626C106.582 54.3626 106.849 54.4104 107.107 54.506C107.366 54.596 107.58 54.7254 107.749 54.8941L107.47 55.493C107.313 55.3412 107.136 55.2287 106.939 55.1556C106.742 55.0769 106.551 55.0375 106.365 55.0375C105.96 55.0375 105.642 55.1668 105.412 55.4255C105.181 55.6842 105.066 56.0582 105.066 56.5475C105.066 57.0424 105.181 57.422 105.412 57.6863C105.642 57.9506 105.96 58.0828 106.365 58.0828C106.545 58.0828 106.733 58.0491 106.93 57.9816C107.127 57.9085 107.307 57.7932 107.47 57.6357L107.749 58.2347C107.574 58.4034 107.355 58.5355 107.091 58.6311C106.832 58.7211 106.57 58.7661 106.306 58.7661ZM108.634 58.6902V55.493C108.634 55.3187 108.629 55.1443 108.618 54.97C108.612 54.79 108.601 54.6129 108.584 54.4385H109.411L109.503 55.5352H109.368C109.425 55.2709 109.52 55.0515 109.655 54.8772C109.79 54.7029 109.953 54.5735 110.144 54.4892C110.341 54.4048 110.547 54.3626 110.76 54.3626C110.85 54.3626 110.926 54.3682 110.988 54.3795C111.05 54.3851 111.112 54.3964 111.174 54.4132L111.165 55.1725C111.07 55.1331 110.985 55.1106 110.912 55.105C110.845 55.0937 110.76 55.0881 110.659 55.0881C110.412 55.0881 110.201 55.1443 110.026 55.2568C109.852 55.3637 109.72 55.5099 109.63 55.6955C109.54 55.8811 109.495 56.0807 109.495 56.2944V58.6902H108.634ZM111.96 60.6051L111.758 59.9134C112.022 59.8571 112.241 59.7897 112.416 59.7109C112.596 59.6322 112.745 59.5281 112.863 59.3988C112.981 59.2751 113.082 59.1148 113.166 58.918L113.377 58.4202L113.36 58.7661L111.513 54.4385H112.424L113.858 57.9816H113.63L115.064 54.4385H115.942L113.993 58.9939C113.869 59.2751 113.737 59.5113 113.597 59.7025C113.456 59.8937 113.304 60.0483 113.141 60.1664C112.978 60.2846 112.798 60.3773 112.601 60.4448C112.404 60.5123 112.191 60.5657 111.96 60.6051ZM116.609 60.5123V55.4593C116.609 55.2962 116.601 55.1303 116.584 54.9616C116.573 54.7872 116.559 54.6129 116.542 54.4385H117.369L117.453 55.4002H117.36C117.45 55.0797 117.63 54.8266 117.9 54.641C118.176 54.4554 118.502 54.3626 118.879 54.3626C119.255 54.3626 119.584 54.4526 119.866 54.6326C120.147 54.8069 120.363 55.0572 120.515 55.3834C120.673 55.7095 120.751 56.1032 120.751 56.5644C120.751 57.0199 120.673 57.4136 120.515 57.7454C120.363 58.0772 120.147 58.3303 119.866 58.5046C119.584 58.6789 119.255 58.7661 118.879 58.7661C118.507 58.7661 118.184 58.6761 117.908 58.4962C117.638 58.3106 117.459 58.0603 117.369 57.7454H117.461V60.5123H116.609ZM118.668 58.0997C119.039 58.0997 119.334 57.9703 119.553 57.7116C119.778 57.4529 119.891 57.0705 119.891 56.5644C119.891 56.0582 119.778 55.6786 119.553 55.4255C119.334 55.1668 119.039 55.0375 118.668 55.0375C118.296 55.0375 117.998 55.1668 117.773 55.4255C117.554 55.6786 117.444 56.0582 117.444 56.5644C117.444 57.0705 117.554 57.4529 117.773 57.7116C117.998 57.9703 118.296 58.0997 118.668 58.0997ZM123.362 58.7661C122.901 58.7661 122.552 58.6424 122.316 58.3949C122.08 58.1419 121.962 57.7651 121.962 57.2645V55.0965H121.135V54.4385H121.962V53.3166L122.814 53.0888V54.4385H123.995V55.0965H122.814V57.1886C122.814 57.5036 122.87 57.7285 122.982 57.8635C123.095 57.9985 123.258 58.0659 123.472 58.0659C123.579 58.0659 123.671 58.0575 123.75 58.0406C123.835 58.0181 123.91 57.9928 123.978 57.9647V58.6564C123.894 58.6902 123.795 58.7155 123.683 58.7324C123.57 58.7549 123.463 58.7661 123.362 58.7661ZM126.554 58.7661C126.132 58.7661 125.767 58.6789 125.458 58.5046C125.148 58.3246 124.909 58.0716 124.741 57.7454C124.572 57.4136 124.487 57.0199 124.487 56.5644C124.487 56.1088 124.572 55.718 124.741 55.3918C124.909 55.06 125.148 54.8069 125.458 54.6326C125.767 54.4526 126.132 54.3626 126.554 54.3626C126.976 54.3626 127.342 54.4526 127.651 54.6326C127.966 54.8069 128.208 55.06 128.376 55.3918C128.551 55.718 128.638 56.1088 128.638 56.5644C128.638 57.0199 128.551 57.4136 128.376 57.7454C128.208 58.0716 127.966 58.3246 127.651 58.5046C127.342 58.6789 126.976 58.7661 126.554 58.7661ZM126.554 58.0997C126.925 58.0997 127.221 57.9703 127.44 57.7116C127.659 57.4529 127.769 57.0705 127.769 56.5644C127.769 56.0582 127.659 55.6786 127.44 55.4255C127.221 55.1668 126.925 55.0375 126.554 55.0375C126.189 55.0375 125.896 55.1668 125.677 55.4255C125.458 55.6786 125.348 56.0582 125.348 56.5644C125.348 57.0705 125.455 57.4529 125.668 57.7116C125.888 57.9703 126.183 58.0997 126.554 58.0997Z" fill="white"/>
</svg>
