<svg width="26" height="24" viewBox="0 0 26 24" fill="none" xmlns="http://www.w3.org/2000/svg">
<path d="M1.00021 9.86656C1.00021 6.87962 1.00021 5.38615 1.58151 4.24529C2.09283 3.24177 2.90873 2.42587 3.91225 1.91455C5.05311 1.33325 6.54658 1.33325 9.53352 1.33325H16.4669C19.4538 1.33325 20.9473 1.33325 22.0882 1.91455C23.0917 2.42587 23.9076 3.24177 24.4189 4.24529C25.0002 5.38615 25.0002 6.87962 25.0002 9.86656V14.1333C25.0002 17.1202 25.0002 18.6137 24.4189 19.7545C23.9076 20.7581 23.0917 21.574 22.0882 22.0853C20.9473 22.6666 19.4538 22.6666 16.4669 22.6666H9.53352C6.54658 22.6666 5.05311 22.6666 3.91225 22.0853C2.90873 21.574 2.09283 20.7581 1.58151 19.7545C1.00021 18.6137 1.00021 17.1202 1.00021 14.1333V9.86656Z" stroke="white" stroke-width="0.999997"/>
<path d="M3 4.66663L11.4302 15.3449C12.231 16.3592 13.769 16.3592 14.5698 15.3449L23 4.66663" stroke="url(#paint0_linear_2505_65)" stroke-width="0.999997" stroke-linecap="round" stroke-linejoin="round"/>
<path d="M17.0001 12C17.0001 12 18.3335 16 21.6668 17.3333" stroke="url(#paint1_linear_2505_65)" stroke-width="0.999997" stroke-linecap="round" stroke-linejoin="round"/>
<path d="M8.99988 12C8.99988 12 7.66654 16 4.33325 17.3333" stroke="url(#paint2_linear_2505_65)" stroke-width="0.999997" stroke-linecap="round" stroke-linejoin="round"/>
<defs>
<linearGradient id="paint0_linear_2505_65" x1="13" y1="4.66663" x2="13" y2="14" gradientUnits="userSpaceOnUse">
<stop stop-color="white" stop-opacity="0"/>
<stop offset="0.410714" stop-color="white"/>
</linearGradient>
<linearGradient id="paint1_linear_2505_65" x1="17.1595" y1="11.6667" x2="21.7739" y2="11.6667" gradientUnits="userSpaceOnUse">
<stop stop-color="white" stop-opacity="0"/>
<stop offset="0.77894" stop-color="white"/>
</linearGradient>
<linearGradient id="paint2_linear_2505_65" x1="8.84053" y1="11.6667" x2="4.22607" y2="11.6667" gradientUnits="userSpaceOnUse">
<stop stop-color="white" stop-opacity="0"/>
<stop offset="0.77894" stop-color="white"/>
</linearGradient>
</defs>
</svg>
