<svg width="74" height="12" viewBox="0 0 74 12" fill="none" xmlns="http://www.w3.org/2000/svg">
<path d="M6.15283 1.05197C6.39576 0.566116 7.08405 0.586359 7.30673 1.05197L8.64283 3.7444L11.5984 4.16953C12.1248 4.2505 12.3272 4.89831 11.9426 5.28294L9.81697 7.36806L10.3231 10.3034C10.404 10.8298 9.83722 11.2346 9.37161 10.9917L6.7399 9.59488L4.08796 10.9917C3.62235 11.2346 3.05552 10.8298 3.13649 10.3034L3.64259 7.36806L1.51698 5.28294C1.13235 4.89831 1.33479 4.2505 1.86113 4.16953L4.83698 3.7444L6.15283 1.05197Z" fill="#FF4F00"/>
<path d="M21.3654 1.05189C21.6083 0.566039 22.2966 0.586283 22.5193 1.05189L23.8554 3.74433L26.811 4.16945C27.3373 4.25042 27.5398 4.89823 27.1551 5.28286L25.0295 7.36798L25.5356 10.3033C25.6166 10.8297 25.0498 11.2346 24.5842 10.9916L21.9525 9.59481L19.3005 10.9916C18.8349 11.2346 18.2681 10.8297 18.349 10.3033L18.8551 7.36798L16.7295 5.28286C16.3449 4.89823 16.5473 4.25042 17.0737 4.16945L20.0495 3.74433L21.3654 1.05189Z" fill="#FF4F00"/>
<path d="M36.5779 1.05189C36.8208 0.566039 37.5091 0.586283 37.7318 1.05189L39.0679 3.74433L42.0235 4.16945C42.5498 4.25042 42.7523 4.89823 42.3676 5.28286L40.242 7.36798L40.7481 10.3033C40.8291 10.8297 40.2623 11.2346 39.7967 10.9916L37.165 9.59481L34.513 10.9916C34.0474 11.2346 33.4806 10.8297 33.5615 10.3033L34.0676 7.36798L31.942 5.28286C31.5574 4.89823 31.7598 4.25042 32.2862 4.16945L35.262 3.74433L36.5779 1.05189Z" fill="#FF4F00"/>
<path d="M51.7903 1.05189C52.0333 0.566039 52.7216 0.586283 52.9442 1.05189L54.2803 3.74433L57.2359 4.16945C57.7623 4.25042 57.9647 4.89823 57.5801 5.28286L55.4545 7.36798L55.9606 10.3033C56.0416 10.8297 55.4747 11.2346 55.0091 10.9916L52.3774 9.59481L49.7255 10.9916C49.2599 11.2346 48.693 10.8297 48.774 10.3033L49.2801 7.36798L47.1545 5.28286C46.7699 4.89823 46.9723 4.25042 47.4986 4.16945L50.4745 3.74433L51.7903 1.05189Z" fill="#FF4F00"/>
<path d="M72.0432 4.16945C72.5695 4.25042 72.7922 4.89823 72.4076 5.28286L70.2617 7.36798L70.7678 10.3033C70.8285 10.7285 70.5046 11.0524 70.12 11.0524C70.0188 11.0524 69.9176 11.0321 69.8163 10.9916L67.1644 9.59481L64.5327 10.9916C64.4315 11.0321 64.3302 11.0524 64.229 11.0524C63.8444 11.0524 63.5003 10.7285 63.5812 10.3033L64.0873 7.36798L61.9415 5.28286C61.5568 4.89823 61.7795 4.25042 62.3059 4.16945L65.2615 3.74433L66.5976 1.05189C66.719 0.808966 66.9417 0.687503 67.1644 0.687503C67.4073 0.687503 67.63 0.808966 67.7515 1.05189L69.0876 3.74433L72.0432 4.16945ZM69.5734 6.65945L71.2537 5.03994L68.9459 4.69579L68.4398 4.63506L68.2171 4.16945L67.1846 2.08433L67.1644 8.50164L67.63 8.74457L69.6949 9.81749L69.29 7.52993L69.209 7.02384L69.5734 6.65945Z" fill="#FF4F00"/>
</svg>
