<svg width="30" height="27" viewBox="0 0 30 27" fill="none" xmlns="http://www.w3.org/2000/svg">
<path d="M27.1875 0.625C28.7109 0.625 30 1.91406 30 3.4375V17.5C30 22.7148 25.7812 26.875 20.625 26.875H20.1562C19.3359 26.875 18.75 26.2891 18.75 25.4688V22.6562C18.75 21.8945 19.3359 21.25 20.1562 21.25H20.625C22.6758 21.25 24.375 19.6094 24.375 17.5V13.75H19.6875C18.1055 13.75 16.875 12.5195 16.875 10.9375V3.4375C16.875 1.91406 18.1055 0.625 19.6875 0.625H27.1875ZM10.3125 0.625C11.8359 0.625 13.125 1.91406 13.125 3.4375V17.5C13.125 22.7148 8.90625 26.875 3.75 26.875H3.28125C2.46094 26.875 1.875 26.2891 1.875 25.4688V22.6562C1.875 21.8945 2.46094 21.25 3.28125 21.25H3.75C5.80078 21.25 7.5 19.6094 7.5 17.5V13.75H2.8125C1.23047 13.75 0 12.5195 0 10.9375V3.4375C0 1.91406 1.23047 0.625 2.8125 0.625H10.3125Z" fill="#FF4F00"/>
</svg>
